<svg id="Layer_1" data-name="Layer 1" xmlns="http://www.w3.org/2000/svg" viewBox="0 0 82.35 112.07"><defs><style>.cls-1{fill:#f4b608;}.cls-2{fill:#fcfcfc;}.cls-3{fill:#fff;}</style></defs><title>book</title><path class="cls-1" d="M75.17,78" transform="translate(-38.61 -7.43)"/><rect class="cls-2" x="55.44" width="3.28" height="69.46"/><rect class="cls-2" x="5.74" width="52.97" height="2.5"/><path class="cls-2" d="M44.36,7.43S38.61,8.3,38.61,14Z" transform="translate(-38.61 -7.43)"/><polygon class="cls-2" points="5.74 2.5 5.74 0 0 6.57 3.42 6.57 6.83 2.5 5.74 2.5"/><polygon class="cls-2" points="17.48 6.57 17.48 20.8 12.98 17.05 8.34 20.92 8.34 6.57 0 6.57 0 73.88 52.61 73.88 52.61 6.57 17.48 6.57"/><path class="cls-2" d="M56.1,14.62v-1.8a1.48,1.48,0,0,1,2.59,0v1.8Z" transform="translate(-38.61 -7.43)"/><path class="cls-3" d="M115.92,105.2c-2.24-1.84-4.26-3.35-5.84-4.46-4.26-3-7.2-5.1-11.64-7-1.22-.51-1.18-.43-5.73-2-4.38-1.54-7.91-2.84-10.23-3.7a19.59,19.59,0,0,0-4.76-1.34,20.36,20.36,0,0,0-2.86-.23,4.1,4.1,0,0,0-1.25.65,3.22,3.22,0,0,0-1.13,1.62A2.56,2.56,0,0,0,72.55,90a3.65,3.65,0,0,0,1.15,1.55,9.59,9.59,0,0,0,1.73,1.24,34.73,34.73,0,0,0,3.26,1.68c1.14.54,2.31,1.08,4,1.78,1.3.55,2.42,1,3.28,1.31a10.35,10.35,0,0,1-2,.57,21.64,21.64,0,0,1-2.65.17c-.28,0-2.65.13-3.43.14H77c-.26,0-1,0-2-.09-.42,0-1.38-.1-2.15-.25a10.09,10.09,0,0,1-3.13-1.21c-2.53-1.36-4.47-2.59-4.5-2.61a43.38,43.38,0,0,0-5.81-3.06,12.64,12.64,0,0,0-2.72-.68,14.64,14.64,0,0,0-2.23-.11,17.89,17.89,0,0,0-2.13.15,3.51,3.51,0,0,0-.87.63,2.9,2.9,0,0,0-.62.92,2,2,0,0,0-.09,1,2.4,2.4,0,0,0,.82,1.4c.52.49,1.09,1,1.73,1.51s1.07.84,1.59,1.21c1.5,1.07,2.74,1.83,3.09,2,1.15.7,2.84,1.8,5.09,3.5a31.65,31.65,0,0,0,4.84,2.55,35.23,35.23,0,0,0,4.9,1.64c3.89,1,6.43.75,13.49.79,2,0,5,0,8.79.17a12.36,12.36,0,0,1,5.65,2.78,43.65,43.65,0,0,0,3.43,3.31c.53.43,1,.79,1.4,1.07Z" transform="translate(-38.61 -7.43)"/><polygon class="cls-3" points="79.16 96.79 77.75 98.13 67.32 108.01 67.14 108.19 65.6 109.86 68.61 112.07 82.35 99.01 79.16 96.79"/><path class="cls-3" d="M105.93,115.44l-.4-.28Z" transform="translate(-38.61 -7.43)"/></svg>