<svg id="Layer_1" data-name="Layer 1" xmlns="http://www.w3.org/2000/svg" viewBox="0 0 274.12 248.3"><defs><style>.cls-1{fill:#fff;}</style></defs><title>secretary_logo</title><path class="cls-1" d="M381,98.79v154.3H126.91V98.79ZM139.86,134.31h0a5.25,5.25,0,0,0,7.33-1l14.32-19.06a5.25,5.25,0,0,0-1-7.33h0a5.25,5.25,0,0,0-7.33,1L138.82,127A5.25,5.25,0,0,0,139.86,134.31Zm34.43-27.92L144,148.68a5,5,0,0,0,1.16,7h0a5,5,0,0,0,7-1.16l30.27-42.3a5,5,0,0,0-1.16-7h0A5,5,0,0,0,174.29,106.38Z" transform="translate(-120.45 -98.79)"/><path class="cls-1" d="M381,256l13.6,91.09H120.45L126.91,256Zm-17.31,13.5h0a4.51,4.51,0,0,0-4.5-4.5H149.5a4.51,4.51,0,0,0-4.5,4.5h0a4.51,4.51,0,0,0,4.5,4.5H359.17A4.51,4.51,0,0,0,363.67,269.5Zm-78.51,34.17h0a5.35,5.35,0,0,0-5.33-5.33H228.06a5.35,5.35,0,0,0-5.33,5.33h0a5.35,5.35,0,0,0,5.33,5.33h51.76A5.35,5.35,0,0,0,285.15,303.67Z" transform="translate(-120.45 -98.79)"/></svg>